<svg width="360" height="640" viewBox="0 0 360 640" fill="none" xmlns="http://www.w3.org/2000/svg">
<g clip-path="url(#clip0)">
<rect width="360" height="640" fill="#6F0481"/>
<path d="M-116.483 436.719C-174.088 392.133 -201.837 271.831 -201.837 271.831C-201.837 271.831 -216.782 157.014 -202.035 85.9891C-182.695 -7.15734 -171.003 -79.2642 -90.3348 -130.702C19.1901 -200.539 124.919 -135.854 239.061 -72.5906C355.584 -8.00827 481.442 51.2881 464.506 182.063C457.799 233.859 449.991 271.67 408.246 303.461C360.497 339.824 310.858 296.973 254.381 317.86C170.577 348.854 170.905 412.626 87.6625 473.109C4.41954 533.592 -52.5792 486.183 -116.483 436.719Z" fill="url(#paint0_linear)"/>
<path d="M563.687 450.424C563.687 450.424 602.476 445.174 625.924 450.424C680.764 462.702 711.536 499.491 713.058 546.14C715.252 613.367 619.76 624.894 541.828 645.595C415.68 679.105 186.483 700.102 208.475 592.752C212.676 572.248 206.35 568.074 231.245 542.9C256.14 517.724 228.513 500.027 237.924 468.121C247.336 436.216 284.679 450.424 289.536 486.317C294.394 522.211 328.094 508.751 328.094 508.751C328.094 508.751 356.646 494.417 366.954 503.766C375.23 511.271 371.812 513.238 366.954 529.689C362.097 546.14 384.319 552.823 402.475 554.864C430.751 558.045 440.622 531.091 449.23 508.751C456.096 490.932 449.23 460.893 449.23 460.893C449.23 460.893 453.243 411.511 478.679 413.035C497.163 414.142 495.46 433.534 511.468 441.201C529.487 449.831 563.687 450.424 563.687 450.424Z" fill="#FE2F67"/>
</g>
<defs>
<linearGradient id="paint0_linear" x1="441.056" y1="186.636" x2="-61.2884" y2="501.599" gradientUnits="userSpaceOnUse">
<stop stop-color="#3300FF"/>
<stop offset="0.852571" stop-color="#BE06AC"/>
</linearGradient>
<clipPath id="clip0">
<rect width="360" height="640" fill="white"/>
</clipPath>
</defs>
</svg>
