<svg width="360" height="640" viewBox="0 0 360 640" fill="none" xmlns="http://www.w3.org/2000/svg">
<g clip-path="url(#clip0)">
<g filter="url(#filter0_f)">
<path d="M336 0H24C10.7452 0 0 8.82198 0 19.7044V620.296C0 631.178 10.7452 640 24 640H336C349.255 640 360 631.178 360 620.296V19.7044C360 8.82198 349.255 0 336 0Z" fill="white"/>
<path d="M336 0H24C10.7452 0 0 8.82198 0 19.7044V620.296C0 631.178 10.7452 640 24 640H336C349.255 640 360 631.178 360 620.296V19.7044C360 8.82198 349.255 0 336 0Z" fill="url(#paint0_linear)"/>
</g>
<mask id="mask0" mask-type="alpha" maskUnits="userSpaceOnUse" x="0" y="0" width="360" height="640">
<path d="M336 0H24C10.7452 0 0 8.82198 0 19.7044V620.296C0 631.178 10.7452 640 24 640H336C349.255 640 360 631.178 360 620.296V19.7044C360 8.82198 349.255 0 336 0Z" fill="white"/>
<path d="M336 0H24C10.7452 0 0 8.82198 0 19.7044V620.296C0 631.178 10.7452 640 24 640H336C349.255 640 360 631.178 360 620.296V19.7044C360 8.82198 349.255 0 336 0Z" fill="url(#paint1_linear)"/>
</mask>
<g mask="url(#mask0)">
<g opacity="0.75" filter="url(#filter1_d)">
<path opacity="0.75" d="M278.802 234.062C254.514 217.112 230.631 227 221.725 234.062C189.848 258.988 193.491 284.911 195.616 323.297C197.741 361.684 230.53 395.582 253.604 412.78C276.677 429.982 322.521 432.973 348.023 433.47C373.525 433.97 420.887 406.301 431.817 389.352C442.746 372.402 448.818 364.924 451.854 340.497C454.89 316.069 451.854 300.615 445.479 284.911C439.103 269.208 409.35 276.935 406.314 281.172C403.278 285.41 385.366 307.345 371.4 310.834C357.435 314.324 348.63 311.831 333.45 307.345C318.27 302.858 310.984 280.175 309.466 276.935C307.948 273.695 309.162 255.249 278.802 234.062Z" fill="#BF34AF"/>
</g>
<path d="M278.954 278.271C258.669 264.114 238.722 272.372 231.284 278.271C204.66 299.088 207.703 320.739 209.478 352.799C211.252 384.859 238.637 413.17 257.908 427.535C277.179 441.899 315.467 444.398 336.766 444.816C358.066 445.23 397.621 422.124 406.75 407.968C415.878 393.81 420.949 387.565 423.485 367.163C426.021 346.762 423.485 333.855 418.16 320.739C412.835 307.624 387.986 314.078 385.45 317.617C382.915 321.155 367.954 339.475 356.29 342.39C344.626 345.304 337.273 343.223 324.595 339.475C311.917 335.728 305.831 316.784 304.564 314.078C303.296 311.371 304.31 295.966 278.954 278.271Z" fill="#7431D7"/>
<path opacity="0.5" d="M329.807 179.723C324.075 132.255 374.143 110.776 423.923 87.7456C454.178 73.7483 475.699 70.0139 506.808 65.5611C544.752 60.1298 575.304 58.9747 608.208 74.2855C635.194 86.8415 652.109 102.535 663.768 126.132C683.63 166.335 690.269 217.122 660.125 252.756C640.886 275.499 623.63 295.522 589.69 294.632C552.48 293.657 521.074 240.293 521.074 240.293C521.074 240.293 496.786 212.875 466.124 222.347C432.75 232.656 409.22 248.336 377.472 240.293C344.696 231.99 333.191 207.747 329.807 179.723Z" fill="url(#paint2_linear)"/>
<path d="M42.6212 337.828C-3.45726 331.499 -56.0247 282.262 -56.0247 282.262C-56.0247 282.262 -99.7104 232.363 -113.249 195.452C-131.005 147.046 -146.594 110.399 -117.063 66.0393C-76.968 5.81046 2.33577 9.4116 85.9305 10.2287C171.269 11.0628 260.23 7.0747 290.901 72.4625C303.049 98.3604 310.281 117.999 296.588 143.373C280.926 172.396 239.858 164.871 214.535 188.859C176.958 224.455 196.741 254.178 168.543 303.415C140.345 352.651 93.7392 344.85 42.6212 337.828Z" fill="url(#paint3_linear)"/>
<path d="M-15.61 304.862C-59.967 292.821 -102.743 237.562 -102.743 237.562C-102.743 237.562 -136.619 182.764 -143.122 144.587C-151.651 94.5207 -160.229 56.348 -122.781 16.218C-71.9372 -38.267 5.76242 -24.7493 88.221 -13.4441C172.4 -1.90319 261.057 5.32724 279.186 73.7971C286.366 100.916 289.854 121.232 271.595 144.587C250.711 171.302 211.528 158.709 182.034 179.235C138.268 209.692 152.281 241.55 115.242 286.666C78.2025 331.783 33.5985 318.22 -15.61 304.862Z" fill="url(#paint4_linear)"/>
<path d="M-69.1911 267.686C-111.249 250.985 -144.853 191.606 -144.853 191.606C-144.853 191.606 -169.706 133.641 -170.071 95.0945C-170.55 44.542 -172.972 5.7758 -129.452 -29.9875C-70.3642 -78.5437 4.51392 -56.7975 84.4632 -36.7334C166.079 -16.251 252.823 0.438896 259.886 70.2677C262.684 97.9244 262.906 118.441 241.083 139.634C216.121 163.877 179.281 147.183 146.77 164.365C98.5276 189.861 107.344 222.949 63.4353 263.7C19.526 304.451 -22.5338 286.215 -69.1911 267.686Z" fill="url(#paint5_linear)"/>
<path d="M543.845 288.899C543.845 288.899 582.634 283.649 606.082 288.899C660.922 301.178 691.694 337.967 693.216 384.616C695.41 451.842 599.918 463.369 521.986 484.071C395.838 517.58 166.641 538.577 188.633 431.228C192.834 410.723 186.508 406.55 211.403 381.375C236.298 356.2 208.671 338.502 218.082 306.597C227.494 274.692 264.837 288.899 269.694 324.793C274.552 360.687 308.252 347.226 308.252 347.226C308.252 347.226 336.803 332.893 347.112 342.241C355.388 349.746 351.97 351.713 347.112 368.164C342.255 384.616 364.477 391.298 382.633 393.34C410.909 396.52 420.78 369.566 429.388 347.226C436.254 329.407 429.388 299.368 429.388 299.368C429.388 299.368 433.401 249.986 458.837 251.51C477.321 252.618 475.618 272.01 491.626 279.677C509.645 288.307 543.845 288.899 543.845 288.899Z" fill="#FE2F67"/>
<path opacity="0.75" d="M265.14 97.9658C257.573 92.4671 249.663 94.4683 241.156 89.9895C217.767 77.6762 210.639 60.6646 208.974 37.8941C204.809 -19.073 357.833 -9.46549 386.884 42.3808C401.159 67.8571 399.893 89.0279 384.759 114.168C376.257 128.291 368.668 141.587 353.184 145.076C337.701 148.566 334.361 154.05 330.111 171C325.86 187.949 309.019 196.992 289.428 195.427C264.572 193.442 231.744 174.24 260.586 148.566C289.428 122.892 283.212 111.098 265.14 97.9658Z" fill="url(#paint6_linear)"/>
<g opacity="0.45">
<mask id="mask1" mask-type="alpha" maskUnits="userSpaceOnUse" x="80" y="255" width="154" height="132">
<g opacity="0.45">
<path opacity="0.5" d="M182.561 276.188C164.952 340.995 143.093 306.898 120.93 308.342C90.3273 310.336 80.5516 340.995 80.5516 340.995C80.5516 340.995 77.6577 355.598 97.8566 367.168C110.912 374.645 115.769 380.628 140.968 385.114C166.167 389.601 192.58 379.382 205.635 369.66C221.179 358.085 226.633 345.102 229.923 336.509C233.262 327.784 236.298 296.876 231.441 284.911C224.607 268.081 194.08 233.792 182.561 276.188Z" fill="#C4C4C4"/>
</g>
</mask>
<g mask="url(#mask1)">
<g opacity="0.45">
<path opacity="0.45" d="M247.995 163.771L250.142 165.533L-7.47088 377.038L-9.61768 375.275L247.995 163.771Z" fill="white"/>
<path opacity="0.45" d="M252.289 167.296L254.436 169.059L-3.17732 380.564L-5.3241 378.801L252.289 167.296Z" fill="white"/>
<path opacity="0.45" d="M256.583 170.821L258.73 172.584L1.11626 384.089L-1.03052 382.326L256.583 170.821Z" fill="white"/>
<path opacity="0.45" d="M260.876 174.346L263.023 176.108L5.40973 387.613L3.26294 385.851L260.876 174.346Z" fill="white"/>
<path opacity="0.45" d="M265.17 177.871L267.316 179.633L9.70332 391.138L7.55652 389.376L265.17 177.871Z" fill="white"/>
<path opacity="0.45" d="M269.463 181.396L271.61 183.159L13.9969 394.665L11.8501 392.901L269.463 181.396Z" fill="white"/>
<path opacity="0.45" d="M273.757 184.921L275.903 186.683L18.2904 398.187L16.1436 396.426L273.757 184.921Z" fill="white"/>
<path opacity="0.45" d="M278.051 188.446L280.197 190.209L22.5841 401.714L20.4373 399.953L278.051 188.446Z" fill="white"/>
<path opacity="0.45" d="M282.344 191.972L284.491 193.734L26.8775 405.238L24.7307 403.476L282.344 191.972Z" fill="white"/>
<path opacity="0.45" d="M286.637 195.496L288.784 197.259L31.1711 408.765L29.0243 407.003L286.637 195.496Z" fill="white"/>
<path opacity="0.45" d="M290.931 199.021L293.078 200.784L35.4647 412.288L33.3179 410.527L290.931 199.021Z" fill="white"/>
<path opacity="0.45" d="M295.224 202.547L297.371 204.31L39.7581 415.816L37.6113 414.054L295.224 202.547Z" fill="white"/>
<path opacity="0.45" d="M299.518 206.071L301.665 207.834L44.0518 419.338L41.905 417.576L299.518 206.071Z" fill="white"/>
<path opacity="0.45" d="M303.812 209.597L305.959 211.359L48.345 422.865L46.1985 421.104L303.812 209.597Z" fill="white"/>
<path opacity="0.45" d="M308.105 213.122L310.252 214.884L52.6386 426.389L50.4921 424.627L308.105 213.122Z" fill="white"/>
<path opacity="0.45" d="M312.399 216.647L314.545 218.41L56.9323 429.916L54.7858 428.151L312.399 216.647Z" fill="white"/>
<path opacity="0.45" d="M316.692 220.172L318.839 221.934L61.2259 433.438L59.0793 431.677L316.692 220.172Z" fill="white"/>
<path opacity="0.45" d="M320.986 223.697L323.133 225.46L65.5195 436.966L63.3729 435.2L320.986 223.697Z" fill="white"/>
<path opacity="0.45" d="M325.28 227.223L327.426 228.985L69.8131 440.489L67.6665 438.728L325.28 227.223Z" fill="white"/>
<path opacity="0.45" d="M329.573 230.747L331.72 232.51L74.1068 444.016L71.9597 442.25L329.573 230.747Z" fill="white"/>
<path opacity="0.45" d="M333.866 234.272L336.013 236.035L78.4002 447.54L76.2532 445.778L333.866 234.272Z" fill="white"/>
<path opacity="0.45" d="M338.16 237.798L340.307 239.561L82.6939 451.067L80.5469 449.301L338.16 237.798Z" fill="white"/>
<path opacity="0.45" d="M342.454 241.322L344.601 243.085L86.9875 454.589L84.8405 452.828L342.454 241.322Z" fill="white"/>
<path opacity="0.45" d="M346.747 244.848L348.894 246.61L91.2806 458.117L89.134 456.351L346.747 244.848Z" fill="white"/>
<path opacity="0.45" d="M351.041 248.372L353.187 250.134L95.5742 461.639L93.4276 459.877L351.041 248.372Z" fill="white"/>
<path opacity="0.45" d="M355.334 251.897L357.481 253.66L99.8678 465.167L97.7212 463.401L355.334 251.897Z" fill="white"/>
<path opacity="0.45" d="M359.628 255.423L361.774 257.185L104.161 468.69L102.015 466.928L359.628 255.423Z" fill="white"/>
<path opacity="0.45" d="M363.922 258.948L366.068 260.711L108.455 472.217L106.308 470.452L363.922 258.948Z" fill="white"/>
<path opacity="0.45" d="M368.215 262.474L370.362 264.236L112.749 475.741L110.602 473.979L368.215 262.474Z" fill="white"/>
<path opacity="0.45" d="M372.508 265.998L374.655 267.761L117.042 479.267L114.895 477.502L372.508 265.998Z" fill="white"/>
<path opacity="0.45" d="M376.802 269.523L378.949 271.286L121.336 482.791L119.189 481.029L376.802 269.523Z" fill="white"/>
<path opacity="0.45" d="M381.095 273.048L383.242 274.811L125.629 486.317L123.482 484.552L381.095 273.048Z" fill="white"/>
<path opacity="0.45" d="M385.389 276.573L387.536 278.336L129.923 489.841L127.776 488.079L385.389 276.573Z" fill="white"/>
<path opacity="0.45" d="M389.683 280.099L391.83 281.861L134.216 493.368L132.07 491.602L389.683 280.099Z" fill="white"/>
<path opacity="0.45" d="M393.976 283.623L396.123 285.385L138.51 496.89L136.363 495.129L393.976 283.623Z" fill="white"/>
<path opacity="0.45" d="M398.27 287.148L400.416 288.911L142.803 500.418L140.657 498.652L398.27 287.148Z" fill="white"/>
<path opacity="0.45" d="M402.563 290.674L404.71 292.436L147.097 503.941L144.95 502.18L402.563 290.674Z" fill="white"/>
<path opacity="0.45" d="M406.857 294.199L409.004 295.962L151.39 507.469L149.244 505.703L406.857 294.199Z" fill="white"/>
<path opacity="0.45" d="M411.151 297.724L413.297 299.486L155.684 510.991L153.538 509.229L411.151 297.724Z" fill="white"/>
<path opacity="0.45" d="M415.444 301.249L417.591 303.012L159.978 514.515L157.831 512.753L415.444 301.249Z" fill="white"/>
<path opacity="0.45" d="M419.737 304.773L421.884 306.536L164.271 518.041L162.124 516.28L419.737 304.773Z" fill="white"/>
<path opacity="0.45" d="M424.031 308.299L426.178 310.062L168.565 521.565L166.418 519.803L424.031 308.299Z" fill="white"/>
<path opacity="0.45" d="M428.324 311.824L430.472 313.587L172.858 525.092L170.711 523.33L428.324 311.824Z" fill="white"/>
<path opacity="0.45" d="M432.618 315.35L434.765 317.112L177.152 528.615L175.005 526.854L432.618 315.35Z" fill="white"/>
<path opacity="0.45" d="M436.912 318.874L439.058 320.636L181.445 532.142L179.299 530.38L436.912 318.874Z" fill="white"/>
<path opacity="0.45" d="M441.205 322.399L443.352 324.162L185.739 535.665L183.592 533.904L441.205 322.399Z" fill="white"/>
<path opacity="0.45" d="M445.499 325.925L447.646 327.687L190.032 539.193L187.886 537.431L445.499 325.925Z" fill="white"/>
<path opacity="0.45" d="M449.793 329.449L451.939 331.212L194.326 542.715L192.179 540.953L449.793 329.449Z" fill="white"/>
<path opacity="0.45" d="M454.086 332.975L456.233 334.737L198.62 546.242L196.473 544.481L454.086 332.975Z" fill="white"/>
<path opacity="0.45" d="M458.379 336.5L460.526 338.263L202.913 549.766L200.766 548.005L458.379 336.5Z" fill="white"/>
<path opacity="0.45" d="M462.673 340.024L464.82 341.787L207.207 553.293L205.06 551.531L462.673 340.024Z" fill="white"/>
<path opacity="0.45" d="M466.967 343.55L469.114 345.313L211.5 556.816L209.353 555.054L466.967 343.55Z" fill="white"/>
<path opacity="0.45" d="M471.26 347.075L473.407 348.838L215.794 560.343L213.647 558.582L471.26 347.075Z" fill="white"/>
<path opacity="0.45" d="M475.554 350.6L477.701 352.362L220.087 563.866L217.941 562.104L475.554 350.6Z" fill="white"/>
<path opacity="0.45" d="M479.847 354.125L481.992 355.887L224.381 567.393L222.234 565.632L479.847 354.125Z" fill="white"/>
</g>
</g>
</g>
<g opacity="0.45">
<mask id="mask2" mask-type="alpha" maskUnits="userSpaceOnUse" x="51" y="137" width="136" height="108">
<g opacity="0.45">
<path opacity="0.45" d="M99.0711 200.162C83.2839 179.224 65.9789 168.839 59.2997 166.263C39.8692 145.574 63.5501 138.346 78.7301 137.598C93.9101 136.85 112.733 152.055 122.449 157.788C132.164 163.521 153.416 156.292 169.203 160.28C184.99 164.269 180.74 179.972 174.971 200.162C169.203 220.353 210.493 241.789 164.953 244.032C119.413 246.276 118.805 226.335 99.0711 200.162Z" fill="#C4C4C4"/>
</g>
</mask>
<g mask="url(#mask2)">
<g opacity="0.45">
<path opacity="0.45" d="M155.094 13.2168L157.241 14.9793L-100.372 226.484L-102.519 224.722L155.094 13.2168Z" fill="white"/>
<path opacity="0.45" d="M159.387 16.7412L161.534 18.5037L-96.0787 230.009L-98.2257 228.246L159.387 16.7412Z" fill="white"/>
<path opacity="0.45" d="M163.681 20.2666L165.828 22.0291L-91.7851 233.534L-93.9321 231.771L163.681 20.2666Z" fill="white"/>
<path opacity="0.45" d="M167.975 23.792L170.121 25.5545L-87.492 237.06L-89.6385 235.297L167.975 23.792Z" fill="white"/>
<path opacity="0.45" d="M172.268 27.3174L174.415 29.0799L-83.1984 240.585L-85.345 238.822L172.268 27.3174Z" fill="white"/>
<path opacity="0.45" d="M176.562 30.8418L178.708 32.6043L-78.9047 244.109L-81.0513 242.347L176.562 30.8418Z" fill="white"/>
<path opacity="0.45" d="M180.855 34.3672L183.002 36.1297L-74.6111 247.635L-76.7577 245.872L180.855 34.3672Z" fill="white"/>
<path opacity="0.45" d="M185.149 37.8926L187.296 39.655L-70.3176 251.16L-72.4641 249.398L185.149 37.8926Z" fill="white"/>
<path opacity="0.45" d="M189.443 41.418L191.589 43.1803L-66.024 254.685L-68.171 252.923L189.443 41.418Z" fill="white"/>
<path opacity="0.45" d="M193.736 44.9424L195.883 46.7047L-61.7303 258.21L-63.8773 256.447L193.736 44.9424Z" fill="white"/>
<path opacity="0.45" d="M198.029 48.4678L200.176 50.2305L-57.4368 261.736L-59.5839 259.973L198.029 48.4678Z" fill="white"/>
<path opacity="0.45" d="M202.323 51.9922L204.47 53.7549L-53.1431 265.26L-55.2902 263.497L202.323 51.9922Z" fill="white"/>
<path opacity="0.45" d="M206.617 55.5176L208.764 57.2803L-48.8495 268.785L-50.9966 267.023L206.617 55.5176Z" fill="white"/>
<path opacity="0.45" d="M210.91 59.043L213.057 60.8057L-44.5563 272.311L-46.703 270.548L210.91 59.043Z" fill="white"/>
<path opacity="0.45" d="M215.204 62.5684L217.35 64.3311L-40.2627 275.836L-42.4094 274.073L215.204 62.5684Z" fill="white"/>
<path opacity="0.45" d="M219.497 66.0928L221.644 67.8551L-35.9691 279.36L-38.1158 277.598L219.497 66.0928Z" fill="white"/>
<path opacity="0.45" d="M223.791 69.6182L225.937 71.3805L-31.6756 282.886L-33.8224 281.123L223.791 69.6182Z" fill="white"/>
<path opacity="0.45" d="M228.085 73.1436L230.231 74.9059L-27.3821 286.411L-29.5288 284.649L228.085 73.1436Z" fill="white"/>
<path opacity="0.45" d="M232.378 76.668L234.525 78.4303L-23.0885 289.935L-25.2352 288.173L232.378 76.668Z" fill="white"/>
<path opacity="0.45" d="M236.671 80.1934L238.818 81.9557L-18.7949 293.461L-20.9417 291.698L236.671 80.1934Z" fill="white"/>
<path opacity="0.45" d="M240.965 83.7188L243.112 85.4815L-14.5013 296.987L-16.6481 295.224L240.965 83.7188Z" fill="white"/>
<path opacity="0.45" d="M245.258 87.2432L247.405 89.0059L-10.2079 300.511L-12.3546 298.748L245.258 87.2432Z" fill="white"/>
<path opacity="0.45" d="M249.552 90.7686L251.699 92.5313L-5.91428 304.036L-8.06104 302.274L249.552 90.7686Z" fill="white"/>
<path opacity="0.45" d="M253.846 94.2939L255.992 96.0567L-1.62068 307.562L-3.76746 305.799L253.846 94.2939Z" fill="white"/>
<path opacity="0.45" d="M258.139 97.8184L260.286 99.5811L2.67277 311.086L0.526001 309.323L258.139 97.8184Z" fill="white"/>
<path opacity="0.45" d="M262.433 101.344L264.579 103.106L6.96645 314.611L4.8197 312.849L262.433 101.344Z" fill="white"/>
<path opacity="0.45" d="M266.726 104.869L268.873 106.631L11.2599 318.137L9.11316 316.374L266.726 104.869Z" fill="white"/>
<path opacity="0.45" d="M271.02 108.394L273.167 110.156L15.5535 321.661L13.4067 319.899L271.02 108.394Z" fill="white"/>
<path opacity="0.45" d="M275.314 111.92L277.46 113.682L19.8471 325.187L17.7003 323.425L275.314 111.92Z" fill="white"/>
<path opacity="0.45" d="M279.607 115.444L281.754 117.207L24.1406 328.712L21.9939 326.949L279.607 115.444Z" fill="white"/>
<path opacity="0.45" d="M283.9 118.969L286.047 120.732L28.4341 332.237L26.2874 330.474L283.9 118.969Z" fill="white"/>
<path opacity="0.45" d="M288.194 122.494L290.341 124.257L32.7277 335.762L30.5809 333.999L288.194 122.494Z" fill="white"/>
<path opacity="0.45" d="M292.488 126.02L294.635 127.782L37.0213 339.287L34.8745 337.525L292.488 126.02Z" fill="white"/>
<path opacity="0.45" d="M296.781 129.544L298.928 131.307L41.3147 342.812L39.168 341.049L296.781 129.544Z" fill="white"/>
<path opacity="0.45" d="M301.075 133.069L303.221 134.832L45.6084 346.337L43.4617 344.574L301.075 133.069Z" fill="white"/>
<path opacity="0.45" d="M305.368 136.595L307.515 138.357L49.9018 349.862L47.7551 348.1L305.368 136.595Z" fill="white"/>
<path opacity="0.45" d="M309.662 140.12L311.809 141.882L54.1954 353.388L52.0488 351.625L309.662 140.12Z" fill="white"/>
<path opacity="0.45" d="M313.956 143.645L316.102 145.407L58.4891 356.912L56.3425 355.15L313.956 143.645Z" fill="white"/>
<path opacity="0.45" d="M318.249 147.17L320.396 148.932L62.7827 360.437L60.6356 358.675L318.249 147.17Z" fill="white"/>
<path opacity="0.45" d="M322.542 150.695L324.689 152.458L67.0762 363.963L64.9292 362.2L322.542 150.695Z" fill="white"/>
<path opacity="0.45" d="M326.836 154.22L328.983 155.982L71.3698 367.487L69.2228 365.725L326.836 154.22Z" fill="white"/>
<path opacity="0.45" d="M331.13 157.745L333.277 159.508L75.6634 371.013L73.5164 369.25L331.13 157.745Z" fill="white"/>
<path opacity="0.45" d="M335.423 161.271L337.57 163.033L79.9571 374.538L77.8101 372.775L335.423 161.271Z" fill="white"/>
<path opacity="0.45" d="M339.717 164.795L341.863 166.558L84.2501 378.063L82.1035 376.3L339.717 164.795Z" fill="white"/>
<path opacity="0.45" d="M344.01 168.32L346.157 170.083L88.5438 381.588L86.3972 379.825L344.01 168.32Z" fill="white"/>
<path opacity="0.45" d="M348.304 171.846L350.451 173.608L92.8374 385.113L90.6908 383.351L348.304 171.846Z" fill="white"/>
<path opacity="0.45" d="M352.597 175.37L354.744 177.132L97.1309 388.637L94.9844 386.875L352.597 175.37Z" fill="white"/>
<path opacity="0.45" d="M356.891 178.896L359.038 180.659L101.425 392.164L99.278 390.402L356.891 178.896Z" fill="white"/>
<path opacity="0.45" d="M361.185 182.421L363.331 184.183L105.718 395.689L103.572 393.926L361.185 182.421Z" fill="white"/>
<path opacity="0.45" d="M365.478 185.946L367.625 187.709L110.012 399.212L107.865 397.451L365.478 185.946Z" fill="white"/>
<path opacity="0.45" d="M369.771 189.472L371.918 191.234L114.305 402.739L112.158 400.978L369.771 189.472Z" fill="white"/>
<path opacity="0.45" d="M374.065 192.996L376.212 194.759L118.599 406.262L116.452 404.501L374.065 192.996Z" fill="white"/>
<path opacity="0.45" d="M378.359 196.521L380.506 198.283L122.893 409.789L120.745 408.027L378.359 196.521Z" fill="white"/>
<path opacity="0.45" d="M382.652 200.047L384.799 201.81L127.186 413.313L125.039 411.551L382.652 200.047Z" fill="white"/>
<path opacity="0.45" d="M386.946 203.571L389.092 205.334L131.479 416.839L129.333 415.078L386.946 203.571Z" fill="white"/>
</g>
</g>
</g>
<path fill-rule="evenodd" clip-rule="evenodd" d="M28.8 275.862C28.8 274.033 28.8 273.118 28.874 272.346C29.8003 262.683 39.148 255.009 50.917 254.248C51.8568 254.187 52.9714 254.188 55.2 254.188H304.8C307.029 254.188 308.143 254.187 309.083 254.248C320.852 255.009 330.2 262.683 331.126 272.346C331.2 273.118 331.2 274.033 331.2 275.862C331.2 277.692 331.2 278.607 331.126 279.379C330.2 289.041 320.852 296.716 309.083 297.477C308.143 297.537 307.029 297.537 304.8 297.537H55.2C52.9714 297.537 51.8568 297.537 50.917 297.477C39.148 296.716 29.8003 289.041 28.874 279.379C28.8 278.607 28.8 277.692 28.8 275.862Z" fill="black" fill-opacity="0.01"/>
</g>
<mask id="mask3" mask-type="alpha" maskUnits="userSpaceOnUse" x="28" y="254" width="304" height="44">
<path fill-rule="evenodd" clip-rule="evenodd" d="M28.8 275.862C28.8 274.033 28.8 273.118 28.874 272.346C29.8003 262.683 39.148 255.009 50.917 254.248C51.8568 254.187 52.9714 254.188 55.2 254.188H304.8C307.029 254.188 308.143 254.187 309.083 254.248C320.852 255.009 330.2 262.683 331.126 272.346C331.2 273.118 331.2 274.033 331.2 275.862C331.2 277.692 331.2 278.607 331.126 279.379C330.2 289.041 320.852 296.716 309.083 297.477C308.143 297.537 307.029 297.537 304.8 297.537H55.2C52.9714 297.537 51.8568 297.537 50.917 297.477C39.148 296.716 29.8003 289.041 28.874 279.379C28.8 278.607 28.8 277.692 28.8 275.862Z" fill="white"/>
</mask>
<g mask="url(#mask3)">
<path opacity="0.01" fill-rule="evenodd" clip-rule="evenodd" d="M300 264.039C293.373 264.039 288 268.45 288 273.891C288 279.332 293.373 283.743 300 283.743C306.627 283.743 312 279.332 312 273.891C312 268.45 306.627 264.039 300 264.039Z" fill="#50A1FF"/>
</g>
<mask id="mask4" mask-type="alpha" maskUnits="userSpaceOnUse" x="288" y="264" width="24" height="20">
<path fill-rule="evenodd" clip-rule="evenodd" d="M288 273.891C288 268.443 293.364 264.039 300 264.039C306.639 264.039 312 268.441 312 273.891C312 279.344 306.642 283.743 300 283.743C293.361 283.743 288 279.342 288 273.891Z" fill="white"/>
</mask>
<g mask="url(#mask4)">
</g>
<mask id="mask5" mask-type="alpha" maskUnits="userSpaceOnUse" x="28" y="313" width="304" height="44">
<path fill-rule="evenodd" clip-rule="evenodd" d="M28.8 334.976C28.8 333.146 28.8 332.231 28.874 331.459C29.8003 321.797 39.148 314.122 50.917 313.361C51.8568 313.301 52.9714 313.301 55.2 313.301H304.8C307.029 313.301 308.143 313.301 309.083 313.361C320.852 314.122 330.2 321.797 331.126 331.459C331.2 332.231 331.2 333.146 331.2 334.976C331.2 336.805 331.2 337.72 331.126 338.492C330.2 348.155 320.852 355.829 309.083 356.59C308.143 356.651 307.029 356.651 304.8 356.651H55.2C52.9714 356.651 51.8568 356.651 50.917 356.59C39.148 355.829 29.8003 348.155 28.874 338.492C28.8 337.72 28.8 336.805 28.8 334.976Z" fill="white"/>
</mask>
<g mask="url(#mask5)">
</g>
<mask id="mask6" mask-type="alpha" maskUnits="userSpaceOnUse" x="28" y="372" width="304" height="44">
<path fill-rule="evenodd" clip-rule="evenodd" d="M28.8 394.089C28.8 392.259 28.8 391.344 28.874 390.573C29.8003 380.91 39.148 373.235 50.917 372.475C51.8568 372.414 52.9714 372.414 55.2 372.414H304.8C307.029 372.414 308.143 372.414 309.083 372.475C320.852 373.235 330.2 380.91 331.126 390.573C331.2 391.344 331.2 392.259 331.2 394.089C331.2 395.918 331.2 396.832 331.126 397.604C330.2 407.267 320.852 414.944 309.083 415.705C308.143 415.764 307.029 415.764 304.8 415.764H55.2C52.9714 415.764 51.8568 415.764 50.917 415.705C39.148 414.944 29.8003 407.267 28.874 397.604C28.8 396.832 28.8 395.918 28.8 394.089Z" fill="white"/>
</mask>
<g mask="url(#mask6)">
</g>
<mask id="mask7" mask-type="alpha" maskUnits="userSpaceOnUse" x="275" y="328" width="42" height="14">
<path fill-rule="evenodd" clip-rule="evenodd" d="M275.52 334.975C275.52 331.493 278.958 328.67 283.2 328.67H309.12C313.362 328.67 316.8 331.493 316.8 334.975C316.8 338.458 313.362 341.281 309.12 341.281H283.2C278.958 341.281 275.52 338.458 275.52 334.975Z" fill="white"/>
</mask>
<g mask="url(#mask7)">
</g>
<mask id="mask8" mask-type="alpha" maskUnits="userSpaceOnUse" x="28" y="491" width="304" height="40">
<path fill-rule="evenodd" clip-rule="evenodd" d="M28.8 511.133C28.8 500.252 39.5452 491.429 52.8 491.429H307.2C320.455 491.429 331.2 500.252 331.2 511.133C331.2 522.014 320.455 530.838 307.2 530.838H52.8C39.5452 530.838 28.8 522.014 28.8 511.133Z" fill="white"/>
</mask>
<g mask="url(#mask8)">
</g>
</g>
<defs>
<filter id="filter0_f" x="-2" y="-2" width="364" height="644" filterUnits="userSpaceOnUse" color-interpolation-filters="sRGB">
<feFlood flood-opacity="0" result="BackgroundImageFix"/>
<feBlend mode="normal" in="SourceGraphic" in2="BackgroundImageFix" result="shape"/>
<feGaussianBlur stdDeviation="1" result="effect1_foregroundBlur"/>
</filter>
<filter id="filter1_d" x="189.226" y="224.703" width="268.873" height="218.894" filterUnits="userSpaceOnUse" color-interpolation-filters="sRGB">
<feFlood flood-opacity="0" result="BackgroundImageFix"/>
<feColorMatrix in="SourceAlpha" type="matrix" values="0 0 0 0 0 0 0 0 0 0 0 0 0 0 0 0 0 0 127 0"/>
<feOffset dy="5.06"/>
<feGaussianBlur stdDeviation="2.53"/>
<feColorMatrix type="matrix" values="0 0 0 0 0 0 0 0 0 0 0 0 0 0 0 0 0 0 0.25 0"/>
<feBlend mode="normal" in2="BackgroundImageFix" result="effect1_dropShadow"/>
<feBlend mode="normal" in="SourceGraphic" in2="effect1_dropShadow" result="shape"/>
</filter>
<linearGradient id="paint0_linear" x1="396" y1="-59.2" x2="-260.322" y2="146.92" gradientUnits="userSpaceOnUse">
<stop offset="0.0751936" stop-color="#FF9A58"/>
<stop offset="0.5" stop-color="#FE2F67"/>
<stop offset="0.980185" stop-color="#7431D7"/>
</linearGradient>
<linearGradient id="paint1_linear" x1="396" y1="-59.2" x2="-260.322" y2="146.92" gradientUnits="userSpaceOnUse">
<stop offset="0.0751936" stop-color="#FF9A58"/>
<stop offset="0.5" stop-color="#FE2F67"/>
<stop offset="0.980185" stop-color="#7431D7"/>
</linearGradient>
<linearGradient id="paint2_linear" x1="680.77" y1="38.6411" x2="409.289" y2="334.754" gradientUnits="userSpaceOnUse">
<stop stop-color="#EEB87D"/>
<stop offset="1" stop-color="#7431D7"/>
</linearGradient>
<linearGradient id="paint3_linear" x1="264.164" y1="127.819" x2="147.031" y2="348.811" gradientUnits="userSpaceOnUse">
<stop stop-color="#FF9A58"/>
<stop offset="1" stop-color="#FC4853"/>
</linearGradient>
<linearGradient id="paint4_linear" x1="378.08" y1="-23.6738" x2="106.602" y2="378.169" gradientUnits="userSpaceOnUse">
<stop stop-color="#FFD058"/>
<stop offset="0.0001" stop-color="#FACF63"/>
<stop offset="1" stop-color="#F82A5B"/>
</linearGradient>
<linearGradient id="paint5_linear" x1="245.834" y1="75.2722" x2="23.0059" y2="336.859" gradientUnits="userSpaceOnUse">
<stop stop-color="#FFDC61"/>
<stop offset="1" stop-color="#FF0010"/>
</linearGradient>
<linearGradient id="paint6_linear" x1="396.915" y1="-20.445" x2="181.755" y2="128.356" gradientUnits="userSpaceOnUse">
<stop stop-color="#EEB87D"/>
<stop offset="1" stop-color="#7431D7"/>
</linearGradient>
<clipPath id="clip0">
<rect width="360" height="640" fill="white"/>
</clipPath>
</defs>
</svg>
